<svg width="61" height="60" viewBox="0 0 61 60" fill="none" xmlns="http://www.w3.org/2000/svg">
<rect x="0.5" width="60" height="60" rx="12.8889" fill="#578EEE"/>
<path d="M26.6138 46L25.9725 40.8696C25.5212 40.7185 25.0585 40.5069 24.5846 40.2348C24.1106 39.9627 23.6869 39.6712 23.3133 39.3603L18.5619 41.3684L14.6753 34.6316L18.7854 31.5255C18.7465 31.275 18.719 31.0235 18.7028 30.7709C18.6866 30.5182 18.6785 30.2667 18.6785 30.0162C18.6785 29.7765 18.6866 29.5331 18.7028 29.2858C18.719 29.0386 18.7465 28.7681 18.7854 28.4745L14.6753 25.3684L18.5619 18.664L23.2971 20.6559C23.703 20.3342 24.1365 20.04 24.5975 19.7733C25.0585 19.5066 25.5114 19.2923 25.9562 19.1304L26.6138 14H34.3869L35.0282 19.1466C35.5335 19.3301 35.9907 19.5444 36.3999 19.7895C36.8091 20.0346 37.2221 20.3234 37.6388 20.6559L42.4388 18.664L46.3254 25.3684L42.1505 28.523C42.211 28.7951 42.2439 29.0494 42.2493 29.2858C42.2547 29.5222 42.2574 29.7603 42.2574 30C42.2574 30.2289 42.252 30.4615 42.2412 30.698C42.2304 30.9344 42.1915 31.2049 42.1246 31.5093L46.2671 34.6316L42.3805 41.3684L37.6388 39.3441C37.2221 39.6766 36.7967 39.9708 36.3627 40.2267C35.9286 40.4826 35.4838 40.6915 35.0282 40.8534L34.3869 46H26.6138ZM30.5198 35.0526C31.9211 35.0526 33.1135 34.5608 34.0971 33.5773C35.0806 32.5938 35.5724 31.4013 35.5724 30C35.5724 28.5987 35.0806 27.4062 34.0971 26.4227C33.1135 25.4392 31.9211 24.9474 30.5198 24.9474C29.1012 24.9474 27.9044 25.4392 26.9295 26.4227C25.9546 27.4062 25.4672 28.5987 25.4672 30C25.4672 31.4013 25.9546 32.5938 26.9295 33.5773C27.9044 34.5608 29.1012 35.0526 30.5198 35.0526ZM30.5198 32.5263C29.818 32.5263 29.2215 32.2807 28.7303 31.7895C28.239 31.2982 27.9934 30.7018 27.9934 30C27.9934 29.2982 28.239 28.7017 28.7303 28.2105C29.2215 27.7193 29.818 27.4737 30.5198 27.4737C31.2215 27.4737 31.818 27.7193 32.3092 28.2105C32.8005 28.7017 33.0461 29.2982 33.0461 30C33.0461 30.7018 32.8005 31.2982 32.3092 31.7895C31.818 32.2807 31.2215 32.5263 30.5198 32.5263ZM28.8161 43.4737H32.1262L32.7319 38.962C33.5913 38.7374 34.3767 38.4184 35.0882 38.0049C35.7997 37.5914 36.4858 37.0597 37.1465 36.4097L41.3312 38.1684L42.9894 35.3053L39.336 32.5522C39.4763 32.1161 39.5719 31.6885 39.6226 31.2696C39.6734 30.8508 39.6987 30.4275 39.6987 30C39.6987 29.5617 39.6734 29.1385 39.6226 28.7304C39.5719 28.3223 39.4763 27.9055 39.336 27.4802L43.0218 24.6947L41.3635 21.8316L37.1303 23.6162C36.5668 23.0137 35.8915 22.4815 35.1044 22.0194C34.3173 21.5573 33.5211 21.2302 32.7157 21.038L32.1846 16.5263H28.842L28.285 21.0218C27.4256 21.2248 26.632 21.5357 25.9044 21.9546C25.1767 22.3735 24.4825 22.9133 23.8218 23.5741L19.6372 21.8316L17.9788 24.6947L21.6161 27.4057C21.4758 27.8051 21.3775 28.2208 21.3214 28.6526C21.2652 29.0845 21.2372 29.539 21.2372 30.0162C21.2372 30.4545 21.2652 30.8842 21.3214 31.3053C21.3775 31.7263 21.4704 32.142 21.5999 32.5522L17.9788 35.3053L19.6372 38.1684L23.8056 36.4C24.4447 37.0564 25.1281 37.5941 25.8558 38.013C26.5834 38.4319 27.3878 38.7536 28.2688 38.9782L28.8161 43.4737Z" fill="#151B3D"/>
<path fill-rule="evenodd" clip-rule="evenodd" d="M28.8161 43.4737H32.1262L32.7319 38.962C33.5913 38.7374 34.3767 38.4184 35.0882 38.0049C35.7997 37.5914 36.4858 37.0597 37.1465 36.4097L41.3312 38.1684L42.9894 35.3053L39.336 32.5522C39.4763 32.1161 39.5719 31.6885 39.6226 31.2696C39.6734 30.8508 39.6987 30.4275 39.6987 30C39.6987 29.5617 39.6734 29.1385 39.6226 28.7304C39.5719 28.3223 39.4763 27.9055 39.336 27.4802L43.0218 24.6947L41.3635 21.8316L37.1303 23.6162C36.5668 23.0137 35.8915 22.4815 35.1044 22.0194C34.3173 21.5573 33.5211 21.2302 32.7157 21.038L32.1846 16.5263H28.842L28.285 21.0218C27.4256 21.2248 26.632 21.5357 25.9044 21.9546C25.1767 22.3735 24.4825 22.9133 23.8218 23.5741L19.6372 21.8316L17.9788 24.6947L21.6161 27.4057C21.4758 27.8051 21.3775 28.2208 21.3214 28.6526C21.2652 29.0845 21.2372 29.539 21.2372 30.0162C21.2372 30.4545 21.2652 30.8842 21.3214 31.3053C21.3775 31.7263 21.4704 32.142 21.5999 32.5522L17.9788 35.3053L19.6372 38.1684L23.8056 36.4C24.4447 37.0564 25.1281 37.5941 25.8558 38.013C26.5834 38.4319 27.3878 38.7536 28.2688 38.9782L28.8161 43.4737ZM34.0971 33.5773C33.1135 34.5608 31.9211 35.0526 30.5198 35.0526C29.1012 35.0526 27.9044 34.5608 26.9295 33.5773C25.9546 32.5938 25.4672 31.4013 25.4672 30C25.4672 28.5987 25.9546 27.4062 26.9295 26.4227C27.9044 25.4392 29.1012 24.9474 30.5198 24.9474C31.9211 24.9474 33.1135 25.4392 34.0971 26.4227C35.0806 27.4062 35.5724 28.5987 35.5724 30C35.5724 31.4013 35.0806 32.5938 34.0971 33.5773Z" fill="white"/>
</svg>
