<svg width="30" height="36" viewBox="0 0 30 36" fill="none" xmlns="http://www.w3.org/2000/svg">
<g clip-path="url(#clip0_101_2)">
<path d="M9.75 5.75H6.25C5.32174 5.75 4.4315 6.11875 3.77513 6.77513C3.11875 7.4315 2.75 8.32174 2.75 9.25V30.25C2.75 31.1783 3.11875 32.0685 3.77513 32.7249C4.4315 33.3813 5.32174 33.75 6.25 33.75H23.75C24.6783 33.75 25.5685 33.3813 26.2249 32.7249C26.8813 32.0685 27.25 31.1783 27.25 30.25V9.25C27.25 8.32174 26.8813 7.4315 26.2249 6.77513C25.5685 6.11875 24.6783 5.75 23.75 5.75H20.25M9.75 5.75C9.75 6.67826 10.1187 7.5685 10.7751 8.22487C11.4315 8.88125 12.3217 9.25 13.25 9.25H16.75C17.6783 9.25 18.5685 8.88125 19.2249 8.22487C19.8813 7.5685 20.25 6.67826 20.25 5.75M9.75 5.75C9.75 4.82174 10.1187 3.9315 10.7751 3.27513C11.4315 2.61875 12.3217 2.25 13.25 2.25H16.75C17.6783 2.25 18.5685 2.61875 19.2249 3.27513C19.8813 3.9315 20.25 4.82174 20.25 5.75" fill="white"/>
<path d="M9.75 5.75H6.25C5.32174 5.75 4.4315 6.11875 3.77513 6.77513C3.11875 7.4315 2.75 8.32174 2.75 9.25V30.25C2.75 31.1783 3.11875 32.0685 3.77513 32.7249C4.4315 33.3813 5.32174 33.75 6.25 33.75H23.75C24.6783 33.75 25.5685 33.3813 26.2249 32.7249C26.8813 32.0685 27.25 31.1783 27.25 30.25V9.25C27.25 8.32174 26.8813 7.4315 26.2249 6.77513C25.5685 6.11875 24.6783 5.75 23.75 5.75H20.25M9.75 5.75C9.75 6.67826 10.1187 7.5685 10.7751 8.22487C11.4315 8.88125 12.3217 9.25 13.25 9.25H16.75C17.6783 9.25 18.5685 8.88125 19.2249 8.22487C19.8813 7.5685 20.25 6.67826 20.25 5.75M9.75 5.75C9.75 4.82174 10.1187 3.9315 10.7751 3.27513C11.4315 2.61875 12.3217 2.25 13.25 2.25H16.75C17.6783 2.25 18.5685 2.61875 19.2249 3.27513C19.8813 3.9315 20.25 4.82174 20.25 5.75" stroke="#151B3D" stroke-width="4" stroke-linecap="round" stroke-linejoin="round"/>
<path d="M12.6182 28.1407H17.382V24.1709H21.3518V19.4072H17.382V15.4374H12.6182V19.4072H8.64844V24.1709H12.6182V28.1407Z" fill="#151B3D"/>
</g>
<defs>
<clipPath id="clip0_101_2">
<rect width="30" height="36" fill="white"/>
</clipPath>
</defs>
</svg>
