<svg width="28" height="34" viewBox="0 0 28 34" fill="none" xmlns="http://www.w3.org/2000/svg">
<path d="M9.24503 5.905H6.07503C5.23429 5.905 4.42799 6.23898 3.8335 6.83347C3.23901 7.42796 2.90503 8.23426 2.90503 9.075V28.095C2.90503 28.9357 3.23901 29.742 3.8335 30.3365C4.42799 30.931 5.23429 31.265 6.07503 31.265H21.925C22.7658 31.265 23.5721 30.931 24.1666 30.3365C24.761 29.742 25.095 28.9357 25.095 28.095V9.075C25.095 8.23426 24.761 7.42796 24.1666 6.83347C23.5721 6.23898 22.7658 5.905 21.925 5.905H18.755M9.24503 5.905C9.24503 6.74574 9.57901 7.55204 10.1735 8.14653C10.768 8.74102 11.5743 9.075 12.415 9.075H15.585C16.4258 9.075 17.2321 8.74102 17.8266 8.14653C18.421 7.55204 18.755 6.74574 18.755 5.905M9.24503 5.905C9.24503 5.06426 9.57901 4.25796 10.1735 3.66347C10.768 3.06898 11.5743 2.735 12.415 2.735H15.585C16.4258 2.735 17.2321 3.06898 17.8266 3.66347C18.421 4.25796 18.755 5.06426 18.755 5.905M14 17H18.755H14ZM14 23.34H18.755H14ZM9.24503 17H9.26088H9.24503ZM9.24503 23.34H9.26088H9.24503Z" fill="white"/>
<path d="M9.24503 5.905H6.07503C5.23429 5.905 4.42799 6.23898 3.8335 6.83347C3.23901 7.42796 2.90503 8.23426 2.90503 9.075V28.095C2.90503 28.9357 3.23901 29.742 3.8335 30.3365C4.42799 30.931 5.23429 31.265 6.07503 31.265H21.925C22.7658 31.265 23.5721 30.931 24.1666 30.3365C24.761 29.742 25.095 28.9357 25.095 28.095V9.075C25.095 8.23426 24.761 7.42796 24.1666 6.83347C23.5721 6.23898 22.7658 5.905 21.925 5.905H18.755M9.24503 5.905C9.24503 6.74574 9.57901 7.55204 10.1735 8.14653C10.768 8.74102 11.5743 9.075 12.415 9.075H15.585C16.4258 9.075 17.2321 8.74102 17.8266 8.14653C18.421 7.55204 18.755 6.74574 18.755 5.905M9.24503 5.905C9.24503 5.06426 9.57901 4.25796 10.1735 3.66347C10.768 3.06898 11.5743 2.735 12.415 2.735H15.585C16.4258 2.735 17.2321 3.06898 17.8266 3.66347C18.421 4.25796 18.755 5.06426 18.755 5.905M14 17H18.755M14 23.34H18.755M9.24503 17H9.26088M9.24503 23.34H9.26088" stroke="#151B3D" stroke-width="4" stroke-linecap="round" stroke-linejoin="round"/>
</svg>
