<svg width="60" height="60" viewBox="0 0 60 60" fill="none" xmlns="http://www.w3.org/2000/svg">
<rect width="60" height="60" rx="12.8889" fill="#578EEE"/>
<path d="M25.2453 18.905H22.0753C21.2345 18.905 20.4282 19.239 19.8337 19.8335C19.2393 20.428 18.9053 21.2343 18.9053 22.075V41.095C18.9053 41.9357 19.2393 42.742 19.8337 43.3365C20.4282 43.931 21.2345 44.265 22.0753 44.265H37.9253C38.766 44.265 39.5723 43.931 40.1668 43.3365C40.7613 42.742 41.0953 41.9357 41.0953 41.095V22.075C41.0953 21.2343 40.7613 20.428 40.1668 19.8335C39.5723 19.239 38.766 18.905 37.9253 18.905H34.7553M25.2453 18.905C25.2453 19.7457 25.5793 20.552 26.1737 21.1465C26.7682 21.741 27.5745 22.075 28.4153 22.075H31.5853C32.426 22.075 33.2323 21.741 33.8268 21.1465C34.4213 20.552 34.7553 19.7457 34.7553 18.905M25.2453 18.905C25.2453 18.0643 25.5793 17.258 26.1737 16.6635C26.7682 16.069 27.5745 15.735 28.4153 15.735H31.5853C32.426 15.735 33.2323 16.069 33.8268 16.6635C34.4213 17.258 34.7553 18.0643 34.7553 18.905M30.0003 30H34.7553H30.0003ZM30.0003 36.34H34.7553H30.0003ZM25.2453 30H25.2611H25.2453ZM25.2453 36.34H25.2611H25.2453Z" fill="white"/>
<path d="M25.2453 18.905H22.0753C21.2345 18.905 20.4282 19.239 19.8337 19.8335C19.2393 20.428 18.9053 21.2343 18.9053 22.075V41.095C18.9053 41.9357 19.2393 42.742 19.8337 43.3365C20.4282 43.931 21.2345 44.265 22.0753 44.265H37.9253C38.766 44.265 39.5723 43.931 40.1668 43.3365C40.7613 42.742 41.0953 41.9357 41.0953 41.095V22.075C41.0953 21.2343 40.7613 20.428 40.1668 19.8335C39.5723 19.239 38.766 18.905 37.9253 18.905H34.7553M25.2453 18.905C25.2453 19.7457 25.5793 20.552 26.1737 21.1465C26.7682 21.741 27.5745 22.075 28.4153 22.075H31.5853C32.426 22.075 33.2323 21.741 33.8268 21.1465C34.4213 20.552 34.7553 19.7457 34.7553 18.905M25.2453 18.905C25.2453 18.0643 25.5793 17.258 26.1737 16.6635C26.7682 16.069 27.5745 15.735 28.4153 15.735H31.5853C32.426 15.735 33.2323 16.069 33.8268 16.6635C34.4213 17.258 34.7553 18.0643 34.7553 18.905M30.0003 30H34.7553M30.0003 36.34H34.7553M25.2453 30H25.2611M25.2453 36.34H25.2611" stroke="#151B3D" stroke-width="4" stroke-linecap="round" stroke-linejoin="round"/>
</svg>
