<svg width="151" height="145" viewBox="0 0 151 145" fill="none" xmlns="http://www.w3.org/2000/svg">
<path d="M5.69727 135.417V137.229L5.55844 144.438H0.0252686V112.352L5.69727 111.982V119.33L5.55844 128.955H5.60472C6.34842 122.305 9.18442 118.818 14.8134 118.818C22.2075 118.818 24.2073 124.817 24.2073 131.884C24.2073 138.951 22.2075 144.95 14.8134 144.95C9.36952 144.947 6.53352 141.694 5.69727 135.417ZM12.579 140.531C16.9487 140.531 18.7634 136.858 18.7634 131.881C18.7634 126.903 16.9487 123.23 12.579 123.23C9.18441 123.23 5.69727 125.415 5.69727 131.415V132.343C5.69727 138.346 9.18441 140.531 12.579 140.531Z" fill="black"/>
<path d="M28.8545 119.512L34.5265 119.138L34.3877 134.763C34.9926 123.092 38.1558 119.138 42.6643 119.138C43.3155 119.138 44.1055 119.185 44.8029 119.323V124.764H43.3155C37.5972 124.764 34.6654 126.764 34.5265 138.855V144.434H28.8545V119.512Z" fill="black"/>
<path d="M47.2258 131.881C47.2258 124.44 51.0865 118.814 59.3168 118.814C65.0814 118.814 71.8243 121.327 70.7104 132.813H52.6697C52.7623 137.463 55.3669 140.716 59.4589 140.716C61.5512 140.716 64.807 139.88 65.597 135.649L70.76 136.812C69.6427 142.438 65.3193 144.95 59.3201 144.95C50.8981 144.947 47.2258 139.321 47.2258 131.881ZM65.7325 130.578C65.9639 124.348 61.9181 123.045 59.4556 123.045C55.3173 123.045 52.9474 125.928 52.6664 130.578H65.7325Z" fill="black"/>
<path d="M90.6582 144.438V135.695C89.9145 141.648 86.3811 144.95 81.6379 144.95C77.0336 144.95 74.6173 142.253 74.6173 138.673C74.6173 133.094 79.9654 130.489 90.6615 129.233V128.258C90.6615 125.838 90.0567 123.7 85.4986 123.7C82.9402 123.7 79.5919 124.305 76.6634 125.653L75.7346 120.864C78.6631 119.747 82.7089 118.818 86.6158 118.818C95.0312 118.818 96.2873 122.725 96.2873 127.514V144.441H90.6582V144.438ZM84.1004 140.997C87.1678 140.997 90.6582 139.136 90.6582 133.325V131.279C82.9865 132.304 80.0546 134.022 80.0546 137.463C80.0546 139.602 81.4032 140.997 84.1004 140.997Z" fill="black"/>
<path d="M100.518 140.299L103.262 136.3C105.446 139.833 108.749 140.997 111.816 140.997C115.164 140.997 116.929 139.787 116.929 137.787C116.929 132.393 101.817 134.905 101.817 126.023C101.817 121.512 105.77 118.814 111.766 118.814C115.534 118.814 119.438 120.163 122.274 123.23L118.833 126.298C117.022 123.974 114.695 122.579 111.766 122.579C108.745 122.579 107.489 123.835 107.489 125.369C107.489 130.158 122.694 128.483 122.694 137.272C122.694 142.015 118.879 144.943 111.859 144.943C108.051 144.947 103.586 143.925 100.518 140.299Z" fill="black"/>
<path d="M126.419 131.881C126.419 124.44 130.279 118.814 138.51 118.814C144.274 118.814 151.017 121.327 149.903 132.813H131.863C131.955 137.463 134.56 140.716 138.652 140.716C140.744 140.716 144 139.88 144.79 135.649L149.953 136.812C148.836 142.438 144.512 144.95 138.513 144.95C130.094 144.947 126.419 139.321 126.419 131.881ZM144.926 130.578C145.157 124.348 141.111 123.045 138.649 123.045C134.51 123.045 132.14 125.928 131.859 130.578H144.926Z" fill="black"/>
<path d="M87.8552 54.0394L121.606 26.5156V42.1334L87.8552 58.604V54.0394Z" fill="#578EEE"/>
<path d="M82.4838 33.7477L54.9601 0H70.5779L87.0485 33.7477H82.4838Z" fill="#578EEE"/>
<path d="M62.1924 39.1223L28.4414 66.6427V51.0282L62.1924 34.5576V39.1223Z" fill="#578EEE"/>
<path d="M63.6236 59.4138L91.1473 93.1616H75.5295L59.0589 59.4138H63.6236Z" fill="#578EEE"/>
</svg>
