<svg width="26" height="34" viewBox="0 0 26 34" fill="none" xmlns="http://www.w3.org/2000/svg">
<path d="M10.3269 26.7996H15.6722V22.3452H20.1265V17H15.6722V12.5456H10.3269V17H5.87258V22.3452H10.3269V26.7996ZM4.09083 33.0357C3.11087 33.0357 2.27197 32.6868 1.57412 31.9889C0.876269 31.2911 0.527344 30.4522 0.527344 29.4722V9.87302C0.527344 8.89306 0.876269 8.05415 1.57412 7.3563C2.27197 6.65845 3.11087 6.30953 4.09083 6.30953H21.9083C22.8882 6.30953 23.7271 6.65845 24.425 7.3563C25.1228 8.05415 25.4718 8.89306 25.4718 9.87302V29.4722C25.4718 30.4522 25.1228 31.2911 24.425 31.9889C23.7271 32.6868 22.8882 33.0357 21.9083 33.0357H4.09083ZM4.09083 29.4722H21.9083V9.87302H4.09083V29.4722ZM2.30909 4.52778V0.964294H23.69V4.52778H2.30909Z" fill="#151B3D"/>
<path fill-rule="evenodd" clip-rule="evenodd" d="M4.09083 29.4722H21.9083V9.87302H4.09083V29.4722ZM15.6722 26.7996H10.3269V22.3452H5.87258V17H10.3269V12.5456H15.6722V17H20.1265V22.3452H15.6722V26.7996Z" fill="white"/>
</svg>
