<svg width="60" height="60" viewBox="0 0 60 60" fill="none" xmlns="http://www.w3.org/2000/svg">
<rect width="60" height="60" rx="12.8889" fill="#578EEE"/>
<path d="M27.3269 39.7996H32.6722V35.3452H37.1265V30H32.6722V25.5456H27.3269V30H22.8726V35.3452H27.3269V39.7996ZM21.0908 46.0357C20.1109 46.0357 19.272 45.6868 18.5741 44.9889C17.8763 44.2911 17.5273 43.4522 17.5273 42.4722V22.873C17.5273 21.8931 17.8763 21.0542 18.5741 20.3563C19.272 19.6585 20.1109 19.3095 21.0908 19.3095H38.9083C39.8882 19.3095 40.7271 19.6585 41.425 20.3563C42.1228 21.0542 42.4718 21.8931 42.4718 22.873V42.4722C42.4718 43.4522 42.1228 44.2911 41.425 44.9889C40.7271 45.6868 39.8882 46.0357 38.9083 46.0357H21.0908ZM21.0908 42.4722H38.9083V22.873H21.0908V42.4722ZM19.3091 17.5278V13.9643H40.69V17.5278H19.3091Z" fill="#151B3D"/>
<path fill-rule="evenodd" clip-rule="evenodd" d="M21.0908 42.4722H38.9083V22.873H21.0908V42.4722ZM32.6722 39.7996H27.3269V35.3452H22.8726V30H27.3269V25.5456H32.6722V30H37.1265V35.3452H32.6722V39.7996Z" fill="white"/>
</svg>
