<svg width="33" height="32" viewBox="0 0 33 32" fill="none" xmlns="http://www.w3.org/2000/svg">
<path d="M12.6138 32L11.9725 26.8696C11.5212 26.7185 11.0585 26.5069 10.5846 26.2348C10.1106 25.9627 9.68685 25.6712 9.31329 25.3603L4.56187 27.3684L0.675293 20.6316L4.78541 17.5255C4.74653 17.275 4.71899 17.0235 4.7028 16.7709C4.6866 16.5182 4.6785 16.2667 4.6785 16.0162C4.6785 15.7765 4.6866 15.5331 4.7028 15.2858C4.71899 15.0386 4.74653 14.7681 4.78541 14.4745L0.675293 11.3684L4.56187 4.66401L9.29708 6.65593C9.70303 6.33419 10.1365 6.03999 10.5975 5.77332C11.0585 5.50662 11.5114 5.29231 11.9562 5.13037L12.6138 0H20.3869L21.0282 5.14658C21.5335 5.3301 21.9907 5.54441 22.3999 5.78949C22.8091 6.03457 23.2221 6.32338 23.6388 6.65593L28.4388 4.66401L32.3254 11.3684L28.1505 14.523C28.211 14.7951 28.2439 15.0494 28.2493 15.2858C28.2547 15.5222 28.2574 15.7603 28.2574 16C28.2574 16.2289 28.252 16.4615 28.2412 16.698C28.2304 16.9344 28.1915 17.2049 28.1246 17.5093L32.2671 20.6316L28.3805 27.3684L23.6388 25.3441C23.2221 25.6766 22.7967 25.9708 22.3627 26.2267C21.9286 26.4826 21.4838 26.6915 21.0282 26.8534L20.3869 32H12.6138ZM16.5198 21.0526C17.9211 21.0526 19.1135 20.5608 20.0971 19.5773C21.0806 18.5938 21.5724 17.4013 21.5724 16C21.5724 14.5987 21.0806 13.4062 20.0971 12.4227C19.1135 11.4392 17.9211 10.9474 16.5198 10.9474C15.1012 10.9474 13.9044 11.4392 12.9295 12.4227C11.9546 13.4062 11.4672 14.5987 11.4672 16C11.4672 17.4013 11.9546 18.5938 12.9295 19.5773C13.9044 20.5608 15.1012 21.0526 16.5198 21.0526ZM16.5198 18.5263C15.818 18.5263 15.2215 18.2807 14.7303 17.7895C14.239 17.2982 13.9934 16.7018 13.9934 16C13.9934 15.2982 14.239 14.7017 14.7303 14.2105C15.2215 13.7193 15.818 13.4737 16.5198 13.4737C17.2215 13.4737 17.818 13.7193 18.3092 14.2105C18.8005 14.7017 19.0461 15.2982 19.0461 16C19.0461 16.7018 18.8005 17.2982 18.3092 17.7895C17.818 18.2807 17.2215 18.5263 16.5198 18.5263ZM14.8161 29.4737H18.1262L18.7319 24.962C19.5913 24.7374 20.3767 24.4184 21.0882 24.0049C21.7997 23.5914 22.4858 23.0597 23.1465 22.4097L27.3312 24.1684L28.9894 21.3053L25.336 18.5522C25.4763 18.1161 25.5719 17.6885 25.6226 17.2696C25.6734 16.8508 25.6987 16.4275 25.6987 16C25.6987 15.5617 25.6734 15.1385 25.6226 14.7304C25.5719 14.3223 25.4763 13.9055 25.336 13.4802L29.0218 10.6947L27.3635 7.83156L23.1303 9.61619C22.5668 9.01375 21.8915 8.4815 21.1044 8.01943C20.3173 7.55734 19.5211 7.23021 18.7157 7.03804L18.1846 2.52628H14.842L14.285 7.02183C13.4256 7.2248 12.632 7.53574 11.9044 7.95463C11.1767 8.37352 10.4825 8.91334 9.8218 9.57409L5.63716 7.83156L3.97884 10.6947L7.61611 13.4057C7.47576 13.8051 7.37751 14.2208 7.32137 14.6526C7.26523 15.0845 7.23716 15.539 7.23716 16.0162C7.23716 16.4545 7.26523 16.8842 7.32137 17.3053C7.37751 17.7263 7.47035 18.142 7.5999 18.5522L3.97884 21.3053L5.63716 24.1684L9.80559 22.4C10.4447 23.0564 11.1281 23.5941 11.8558 24.013C12.5834 24.4319 13.3878 24.7536 14.2688 24.9782L14.8161 29.4737Z" fill="#151B3D"/>
<path fill-rule="evenodd" clip-rule="evenodd" d="M14.8161 29.4737H18.1262L18.7319 24.962C19.5913 24.7374 20.3767 24.4184 21.0882 24.0049C21.7997 23.5914 22.4858 23.0597 23.1465 22.4097L27.3312 24.1684L28.9894 21.3053L25.336 18.5522C25.4763 18.1161 25.5719 17.6885 25.6226 17.2696C25.6734 16.8508 25.6987 16.4275 25.6987 16C25.6987 15.5617 25.6734 15.1385 25.6226 14.7304C25.5719 14.3223 25.4763 13.9055 25.336 13.4802L29.0218 10.6947L27.3635 7.83156L23.1303 9.61619C22.5668 9.01375 21.8915 8.4815 21.1044 8.01943C20.3173 7.55734 19.5211 7.23021 18.7157 7.03804L18.1846 2.52628H14.842L14.285 7.02183C13.4256 7.2248 12.632 7.53574 11.9044 7.95463C11.1767 8.37352 10.4825 8.91334 9.8218 9.57409L5.63716 7.83156L3.97884 10.6947L7.61611 13.4057C7.47576 13.8051 7.37751 14.2208 7.32137 14.6526C7.26523 15.0845 7.23716 15.539 7.23716 16.0162C7.23716 16.4545 7.26523 16.8842 7.32137 17.3053C7.37751 17.7263 7.47035 18.142 7.5999 18.5522L3.97884 21.3053L5.63716 24.1684L9.80559 22.4C10.4447 23.0564 11.1281 23.5941 11.8558 24.013C12.5834 24.4319 13.3878 24.7536 14.2688 24.9782L14.8161 29.4737ZM20.0971 19.5773C19.1135 20.5608 17.9211 21.0526 16.5198 21.0526C15.1012 21.0526 13.9044 20.5608 12.9295 19.5773C11.9546 18.5938 11.4672 17.4013 11.4672 16C11.4672 14.5987 11.9546 13.4062 12.9295 12.4227C13.9044 11.4392 15.1012 10.9474 16.5198 10.9474C17.9211 10.9474 19.1135 11.4392 20.0971 12.4227C21.0806 13.4062 21.5724 14.5987 21.5724 16C21.5724 17.4013 21.0806 18.5938 20.0971 19.5773Z" fill="white"/>
</svg>
