<svg width="32" height="32" viewBox="0 0 32 32" fill="none" xmlns="http://www.w3.org/2000/svg">
<path d="M21.6 14.4C22.2667 14.4 22.8333 14.1667 23.3 13.7C23.7667 13.2333 24 12.6667 24 12C24 11.3333 23.7667 10.7667 23.3 10.3C22.8333 9.83333 22.2667 9.6 21.6 9.6C20.9333 9.6 20.3667 9.83333 19.9 10.3C19.4333 10.7667 19.2 11.3333 19.2 12C19.2 12.6667 19.4333 13.2333 19.9 13.7C20.3667 14.1667 20.9333 14.4 21.6 14.4ZM10.4 14.4C11.0667 14.4 11.6333 14.1667 12.1 13.7C12.5667 13.2333 12.8 12.6667 12.8 12C12.8 11.3333 12.5667 10.7667 12.1 10.3C11.6333 9.83333 11.0667 9.6 10.4 9.6C9.73333 9.6 9.16667 9.83333 8.7 10.3C8.23333 10.7667 8 11.3333 8 12C8 12.6667 8.23333 13.2333 8.7 13.7C9.16667 14.1667 9.73333 14.4 10.4 14.4ZM16 24.8C17.8133 24.8 19.46 24.2867 20.94 23.26C22.42 22.2333 23.4933 20.88 24.16 19.2H21.52C20.9333 20.1867 20.1533 20.9667 19.18 21.54C18.2067 22.1133 17.1467 22.4 16 22.4C14.8533 22.4 13.7933 22.1133 12.82 21.54C11.8467 20.9667 11.0667 20.1867 10.48 19.2H7.84C8.50667 20.88 9.58 22.2333 11.06 23.26C12.54 24.2867 14.1867 24.8 16 24.8ZM16 32C13.7867 32 11.7067 31.58 9.76 30.74C7.81333 29.9 6.12 28.76 4.68 27.32C3.24 25.88 2.1 24.1867 1.26 22.24C0.42 20.2933 0 18.2133 0 16C0 13.7867 0.42 11.7067 1.26 9.76C2.1 7.81333 3.24 6.12 4.68 4.68C6.12 3.24 7.81333 2.1 9.76 1.26C11.7067 0.42 13.7867 0 16 0C18.2133 0 20.2933 0.42 22.24 1.26C24.1867 2.1 25.88 3.24 27.32 4.68C28.76 6.12 29.9 7.81333 30.74 9.76C31.58 11.7067 32 13.7867 32 16C32 18.2133 31.58 20.2933 30.74 22.24C29.9 24.1867 28.76 25.88 27.32 27.32C25.88 28.76 24.1867 29.9 22.24 30.74C20.2933 31.58 18.2133 32 16 32ZM16 28.8C19.5733 28.8 22.6 27.56 25.08 25.08C27.56 22.6 28.8 19.5733 28.8 16C28.8 12.4267 27.56 9.4 25.08 6.92C22.6 4.44 19.5733 3.2 16 3.2C12.4267 3.2 9.4 4.44 6.92 6.92C4.44 9.4 3.2 12.4267 3.2 16C3.2 19.5733 4.44 22.6 6.92 25.08C9.4 27.56 12.4267 28.8 16 28.8Z" fill="#151B3D"/>
</svg>
