<svg width="60" height="60" viewBox="0 0 60 60" fill="none" xmlns="http://www.w3.org/2000/svg">
<rect width="60" height="60" rx="12.8889" fill="#578EEE"/>
<circle cx="30" cy="30" r="15" fill="white"/>
<path d="M35.6 28.4C36.2667 28.4 36.8333 28.1667 37.3 27.7C37.7667 27.2333 38 26.6667 38 26C38 25.3333 37.7667 24.7667 37.3 24.3C36.8333 23.8333 36.2667 23.6 35.6 23.6C34.9333 23.6 34.3667 23.8333 33.9 24.3C33.4333 24.7667 33.2 25.3333 33.2 26C33.2 26.6667 33.4333 27.2333 33.9 27.7C34.3667 28.1667 34.9333 28.4 35.6 28.4ZM24.4 28.4C25.0667 28.4 25.6333 28.1667 26.1 27.7C26.5667 27.2333 26.8 26.6667 26.8 26C26.8 25.3333 26.5667 24.7667 26.1 24.3C25.6333 23.8333 25.0667 23.6 24.4 23.6C23.7333 23.6 23.1667 23.8333 22.7 24.3C22.2333 24.7667 22 25.3333 22 26C22 26.6667 22.2333 27.2333 22.7 27.7C23.1667 28.1667 23.7333 28.4 24.4 28.4ZM30 38.8C31.8133 38.8 33.46 38.2867 34.94 37.26C36.42 36.2333 37.4933 34.88 38.16 33.2H35.52C34.9333 34.1867 34.1533 34.9667 33.18 35.54C32.2067 36.1133 31.1467 36.4 30 36.4C28.8533 36.4 27.7933 36.1133 26.82 35.54C25.8467 34.9667 25.0667 34.1867 24.48 33.2H21.84C22.5067 34.88 23.58 36.2333 25.06 37.26C26.54 38.2867 28.1867 38.8 30 38.8ZM30 46C27.7867 46 25.7067 45.58 23.76 44.74C21.8133 43.9 20.12 42.76 18.68 41.32C17.24 39.88 16.1 38.1867 15.26 36.24C14.42 34.2933 14 32.2133 14 30C14 27.7867 14.42 25.7067 15.26 23.76C16.1 21.8133 17.24 20.12 18.68 18.68C20.12 17.24 21.8133 16.1 23.76 15.26C25.7067 14.42 27.7867 14 30 14C32.2133 14 34.2933 14.42 36.24 15.26C38.1867 16.1 39.88 17.24 41.32 18.68C42.76 20.12 43.9 21.8133 44.74 23.76C45.58 25.7067 46 27.7867 46 30C46 32.2133 45.58 34.2933 44.74 36.24C43.9 38.1867 42.76 39.88 41.32 41.32C39.88 42.76 38.1867 43.9 36.24 44.74C34.2933 45.58 32.2133 46 30 46ZM30 42.8C33.5733 42.8 36.6 41.56 39.08 39.08C41.56 36.6 42.8 33.5733 42.8 30C42.8 26.4267 41.56 23.4 39.08 20.92C36.6 18.44 33.5733 17.2 30 17.2C26.4267 17.2 23.4 18.44 20.92 20.92C18.44 23.4 17.2 26.4267 17.2 30C17.2 33.5733 18.44 36.6 20.92 39.08C23.4 41.56 26.4267 42.8 30 42.8Z" fill="#151B3D"/>
</svg>
